<svg width="17" height="16" viewBox="0 0 17 16" fill="none" xmlns="http://www.w3.org/2000/svg">
<path id="heart" d="M11.8468 0.50293C11.8353 0.50293 11.82 0.50293 11.8085 0.50293C10.2881 0.50293 8.94378 1.30719 8.17015 2.49444C7.39653 1.30719 6.05226 0.50293 4.53181 0.50293C4.52032 0.50293 4.505 0.50293 4.49352 0.50293C2.12285 0.525909 0.204102 2.45231 0.204102 4.83064C0.204102 6.24768 0.824534 8.25834 2.03476 9.91283C4.34032 13.0648 8.17015 15.8223 8.17015 15.8223C8.17015 15.8223 12 13.0648 14.3055 9.91283C15.5158 8.25834 16.1362 6.24768 16.1362 4.83064C16.1362 2.45231 14.2175 0.525909 11.8468 0.50293Z" fill="black"/>
</svg>
