<svg width="50" height="50" viewBox="0 0 50 50" fill="none" xmlns="http://www.w3.org/2000/svg">
<path d="M25 50C38.8071 50 50 38.8071 50 25C50 11.1929 38.8071 0 25 0C11.1929 0 0 11.1929 0 25C0 38.8071 11.1929 50 25 50Z" fill="#FFEBEB"/>
<path d="M25 37C31.6274 37 37 31.6274 37 25C37 18.3726 31.6274 13 25 13C18.3726 13 13 18.3726 13 25C13 31.6274 18.3726 37 25 37Z" fill="#F1AEAE" stroke="white" stroke-width="2"/>
<rect x="24" y="18" width="2" height="9" rx="1" fill="white"/>
<rect x="24" y="29" width="2" height="2" rx="1" fill="white"/>
</svg>
