<svg width="11" height="11" viewBox="0 0 11 11" fill="none" xmlns="http://www.w3.org/2000/svg">
<path d="M7.84042 0.832031C7.83288 0.832031 7.82283 0.832031 7.8153 0.832031C6.81793 0.832031 5.93612 1.35961 5.42864 2.13841C4.92116 1.35961 4.03936 0.832031 3.04199 0.832031C3.03445 0.832031 3.0244 0.832031 3.01687 0.832031C1.46177 0.847105 0.203125 2.11078 0.203125 3.67089C0.203125 4.60043 0.610112 5.91937 1.40399 7.00467C2.91637 9.07227 5.42864 10.8811 5.42864 10.8811C5.42864 10.8811 7.94091 9.07227 9.45329 7.00467C10.2472 5.91937 10.6542 4.60043 10.6542 3.67089C10.6542 2.11078 9.39551 0.847105 7.84042 0.832031Z" fill="#0042E0"/>
</svg>
