<svg width="18" height="21" viewBox="0 0 18 21" fill="none" xmlns="http://www.w3.org/2000/svg">
<g id="clock">
<path id="clock_2" fill-rule="evenodd" clip-rule="evenodd" d="M11.9 0.667969H6.2V2.56797H11.9V0.667969ZM8.1 13.018H10V7.31797H8.1V13.018ZM15.7285 6.73847L17.0775 5.38947C16.669 4.90497 16.2225 4.44897 15.738 4.04997L14.389 5.39897C12.9165 4.22097 11.064 3.51797 9.05 3.51797C4.3285 3.51797 0.5 7.34647 0.5 12.068C0.5 16.7895 4.319 20.618 9.05 20.618C13.781 20.618 17.6 16.7895 17.6 12.068C17.6 10.054 16.897 8.20147 15.7285 6.73847ZM9.05 18.718C5.3735 18.718 2.4 15.7445 2.4 12.068C2.4 8.39147 5.3735 5.41797 9.05 5.41797C12.7265 5.41797 15.7 8.39147 15.7 12.068C15.7 15.7445 12.7265 18.718 9.05 18.718Z" fill="#004BFE"/>
</g>
</svg>
