<svg width="35" height="35" viewBox="0 0 35 35" fill="none" xmlns="http://www.w3.org/2000/svg">
<path d="M17.5 35C27.165 35 35 27.165 35 17.5C35 7.83502 27.165 0 17.5 0C7.83502 0 0 7.83502 0 17.5C0 27.165 7.83502 35 17.5 35Z" fill="#F8F8F8"/>
<mask id="path-2-inside-1_0_12050" fill="white">
<path fill-rule="evenodd" clip-rule="evenodd" d="M21.9995 11H13.0005C11.3436 11 10.0005 12.3431 10.0005 14V16.7476C9.7263 16.53 9.37901 16.3999 9.00125 16.3999H9.00049V14C9.00049 11.7909 10.7913 10 13.0005 10H21.9995C24.2086 10 25.9995 11.7909 25.9995 14V16.3999C25.6214 16.4 25.2738 16.5303 24.9995 16.7484V14C24.9995 12.3431 23.6564 11 21.9995 11ZM24.9995 19.2514V22C24.9995 23.6569 23.6564 25 21.9995 25H13.0005C11.3436 25 10.0005 23.6569 10.0005 22V19.2522C9.7263 19.4698 9.37901 19.5999 9.00125 19.5999H9.00049V22C9.00049 24.2092 10.7913 26 13.0005 26H21.9995C24.2086 26 25.9995 24.2092 25.9995 22V19.5999C25.6214 19.5998 25.2738 19.4695 24.9995 19.2514ZM25.9995 17.3999V18.5999C25.6623 18.5998 25.3945 18.3281 25.3945 17.9999C25.3945 17.6717 25.6623 17.4001 25.9995 17.3999ZM9.00049 17.3999V18.5999H9.00125C9.33862 18.5999 9.60651 18.3282 9.60651 17.9999C9.60651 17.6716 9.33862 17.3999 9.00125 17.3999L9.00049 17.3999Z"/>
</mask>
<path d="M10.0005 16.7476L9.37878 17.5309L11.0005 18.8181V16.7476H10.0005ZM9.00049 16.3999H8.00049V17.3999H9.00049V16.3999ZM25.9995 16.3999L25.9997 17.3999L26.9995 17.3997V16.3999H25.9995ZM24.9995 16.7484H23.9995V18.8211L25.6219 17.5312L24.9995 16.7484ZM24.9995 19.2514L25.6219 18.4686L23.9995 17.1787V19.2514H24.9995ZM10.0005 19.2522H11.0005V17.1817L9.37878 18.469L10.0005 19.2522ZM9.00049 19.5999V18.5999H8.00049V19.5999H9.00049ZM25.9995 19.5999H26.9995V18.6001L25.9997 18.5999L25.9995 19.5999ZM25.9995 18.5999L25.9991 19.5999L26.9995 19.6004V18.5999H25.9995ZM25.9995 17.3999H26.9995V16.3995L25.9991 16.3999L25.9995 17.3999ZM9.00049 18.5999H8.00049V19.5999H9.00049V18.5999ZM9.00049 17.3999L8.99987 16.3999L8.00049 16.4005V17.3999H9.00049ZM9.00125 17.3999V16.3999H9.00063L9.00125 17.3999ZM13.0005 12H21.9995V10H13.0005V12ZM11.0005 14C11.0005 12.8954 11.8959 12 13.0005 12V10C10.7913 10 9.00049 11.7909 9.00049 14H11.0005ZM11.0005 16.7476V14H9.00049V16.7476H11.0005ZM9.00125 17.3999C9.14556 17.3999 9.27529 17.4487 9.37878 17.5309L10.6222 15.9644C10.1773 15.6112 9.61247 15.3999 9.00125 15.3999V17.3999ZM9.00049 17.3999H9.00125V15.3999H9.00049V17.3999ZM8.00049 14V16.3999H10.0005V14H8.00049ZM13.0005 9C10.2391 9 8.00049 11.2386 8.00049 14H10.0005C10.0005 12.3431 11.3436 11 13.0005 11V9ZM21.9995 9H13.0005V11H21.9995V9ZM26.9995 14C26.9995 11.2386 24.7609 9 21.9995 9V11C23.6564 11 24.9995 12.3431 24.9995 14H26.9995ZM26.9995 16.3999V14H24.9995V16.3999H26.9995ZM25.6219 17.5312C25.7254 17.4488 25.8552 17.3999 25.9997 17.3999L25.9993 15.3999C25.3875 15.4 24.8222 15.6118 24.3771 15.9657L25.6219 17.5312ZM23.9995 14V16.7484H25.9995V14H23.9995ZM21.9995 12C23.1041 12 23.9995 12.8954 23.9995 14H25.9995C25.9995 11.7909 24.2086 10 21.9995 10V12ZM23.9995 19.2514V22H25.9995V19.2514H23.9995ZM23.9995 22C23.9995 23.1046 23.1041 24 21.9995 24V26C24.2086 26 25.9995 24.2092 25.9995 22H23.9995ZM21.9995 24H13.0005V26H21.9995V24ZM13.0005 24C11.8959 24 11.0005 23.1046 11.0005 22H9.00049C9.00049 24.2092 10.7913 26 13.0005 26V24ZM11.0005 22V19.2522H9.00049V22H11.0005ZM9.37878 18.469C9.27529 18.5511 9.14556 18.5999 9.00125 18.5999V20.5999C9.61247 20.5999 10.1773 20.3886 10.6222 20.0355L9.37878 18.469ZM9.00125 18.5999H9.00049V20.5999H9.00125V18.5999ZM8.00049 19.5999V22H10.0005V19.5999H8.00049ZM8.00049 22C8.00049 24.7614 10.2391 27 13.0005 27V25C11.3436 25 10.0005 23.6569 10.0005 22H8.00049ZM13.0005 27H21.9995V25H13.0005V27ZM21.9995 27C24.7609 27 26.9995 24.7614 26.9995 22H24.9995C24.9995 23.6569 23.6564 25 21.9995 25V27ZM26.9995 22V19.5999H24.9995V22H26.9995ZM25.9997 18.5999C25.8552 18.5999 25.7254 18.551 25.6219 18.4686L24.3771 20.0341C24.8222 20.388 25.3875 20.5998 25.9993 20.5999L25.9997 18.5999ZM26.9995 18.5999V17.3999H24.9995V18.5999H26.9995ZM24.3945 17.9999C24.3945 18.8818 25.1113 19.5995 25.9991 19.5999L26 17.5999C26.2133 17.6 26.3945 17.7744 26.3945 17.9999H24.3945ZM25.9991 16.3999C25.1113 16.4003 24.3945 17.118 24.3945 17.9999H26.3945C26.3945 18.2254 26.2133 18.3998 26 18.3999L25.9991 16.3999ZM10.0005 18.5999V17.3999H8.00049V18.5999H10.0005ZM9.00125 17.5999H9.00049V19.5999H9.00125V17.5999ZM8.60651 17.9999C8.60651 17.7744 8.78788 17.5999 9.00125 17.5999V19.5999C9.88937 19.5999 10.6065 18.882 10.6065 17.9999H8.60651ZM9.00125 18.3999C8.78788 18.3999 8.60651 18.2254 8.60651 17.9999H10.6065C10.6065 17.1178 9.88937 16.3999 9.00125 16.3999V18.3999ZM9.00111 18.3999H9.00188L9.00063 16.3999L8.99987 16.3999L9.00111 18.3999Z" fill="#004CFF" mask="url(#path-2-inside-1_0_12050)"/>
<path d="M11 18H24" stroke="#004CFF" stroke-dasharray="1"/>
</svg>
