<svg width="17" height="17" viewBox="0 0 17 17" fill="none" xmlns="http://www.w3.org/2000/svg">
<path d="M9.99695 6.80112L6.66342 10.1346C6.2352 9.70643 5.97168 9.12009 5.97168 8.46788C5.97168 7.16346 7.02576 6.10938 8.33019 6.10938C8.9824 6.10938 9.56873 6.3729 9.99695 6.80112Z" stroke="#1F1F1F" stroke-width="0.988201" stroke-linecap="round" stroke-linejoin="round"/>
<path d="M12.1644 4.36348C11.0115 3.49387 9.69387 3.01953 8.33015 3.01953C6.00459 3.01953 3.83713 4.38984 2.32848 6.76152C1.73556 7.69043 1.73556 9.25178 2.32848 10.1807C2.84893 10.9976 3.45503 11.7025 4.11383 12.2691" stroke="#1F1F1F" stroke-width="0.988201" stroke-linecap="round" stroke-linejoin="round"/>
<path d="M5.97168 13.4292C6.72271 13.7454 7.51986 13.9167 8.33019 13.9167C10.6558 13.9167 12.8232 12.5464 14.3319 10.1747C14.9248 9.24581 14.9248 7.68445 14.3319 6.75555C14.1145 6.41297 13.8773 6.09016 13.6335 5.78711" stroke="#1F1F1F" stroke-width="0.988201" stroke-linecap="round" stroke-linejoin="round"/>
<path d="M10.6435 8.92969C10.4722 9.8586 9.71455 10.6162 8.78564 10.7875" stroke="#1F1F1F" stroke-width="0.988201" stroke-linecap="round" stroke-linejoin="round"/>
<path d="M6.66392 10.1348L1.74268 15.056" stroke="#1F1F1F" stroke-width="0.988201" stroke-linecap="round" stroke-linejoin="round"/>
<path d="M14.9188 1.87988L9.99756 6.80112" stroke="#1F1F1F" stroke-width="0.988201" stroke-linecap="round" stroke-linejoin="round"/>
</svg>
